{"asset":{"version":"2.0","generator":"Blockbench 4.6.1 glTF exporter"},"scenes":[{"nodes":[14],"name":"blockbench_export"}],"scene":0,"nodes":[{"rotation":[-0.21643961393810288,0,0,0.9762960071199334],"translation":[0,0,-0.25],"name":"cube","mesh":0},{"name":"trigger","children":[0]},{"rotation":[0.456402285316659,-0.4089826195167529,0.5620434468033748,0.5554613711108342],"name":"rim","mesh":1},{"name":"trigger_rim","children":[1,2]},{"rotation":[0.7071067811865475,0,0,0.7071067811865476],"translation":[2.5620531337503614e-17,0.25,0.75],"name":"forestock","mesh":2},{"name":"forestock","children":[4]},{"rotation":[0.7071067811865475,0,0,0.7071067811865476],"translation":[2.5620531337503614e-17,0.25,0.75],"name":"bottom_barrel","mesh":3},{"rotation":[0.7071067811865475,0,0,0.7071067811865476],"translation":[1.2721305490496583e-17,5.551115123125783e-17,0.25],"name":"top_barrel","mesh":4},{"rotation":[0.7071067811865475,0,0,0.7071067811865476],"translation":[1.2721305490496583e-17,5.551115123125783e-17,0.25],"name":"bottom_barrel_hole","mesh":5},{"translation":[0,0,0.125],"name":"barrel","children":[5,6,7,8]},{"rotation":[0.7071067811865475,0,0,0.7071067811865476],"translation":[0.09375,0,-1.3125],"name":"cube","mesh":6},{"name":"stock","children":[10]},{"name":"body","mesh":7},{"name":"root","children":[3,9,11,12]},{"children":[13]}],"bufferViews":[{"buffer":0,"byteOffset":0,"byteLength":288,"target":34962,"byteStride":12},{"buffer":0,"byteOffset":288,"byteLength":288,"target":34962,"byteStride":12},{"buffer":0,"byteOffset":576,"byteLength":192,"target":34962,"byteStride":8},{"buffer":0,"byteOffset":768,"byteLength":72,"target":34963},{"buffer":0,"byteOffset":840,"byteLength":4608,"target":34962,"byteStride":12},{"buffer":0,"byteOffset":5448,"byteLength":4608,"target":34962,"byteStride":12},{"buffer":0,"byteOffset":10056,"byteLength":3072,"target":34962,"byteStride":8},{"buffer":0,"byteOffset":13128,"byteLength":1152,"target":34963},{"buffer":0,"byteOffset":14280,"byteLength":888,"target":34962,"byteStride":12},{"buffer":0,"byteOffset":15168,"byteLength":888,"target":34962,"byteStride":12},{"buffer":0,"byteOffset":16056,"byteLength":592,"target":34962,"byteStride":8},{"buffer":0,"byteOffset":16648,"byteLength":180,"target":34963},{"buffer":0,"byteOffset":16828,"byteLength":1440,"target":34962,"byteStride":12},{"buffer":0,"byteOffset":18268,"byteLength":1440,"target":34962,"byteStride":12},{"buffer":0,"byteOffset":19708,"byteLength":960,"target":34962,"byteStride":8},{"buffer":0,"byteOffset":20668,"byteLength":288,"target":34963},{"buffer":0,"byteOffset":20956,"byteLength":2304,"target":34962,"byteStride":12},{"buffer":0,"byteOffset":23260,"byteLength":2304,"target":34962,"byteStride":12},{"buffer":0,"byteOffset":25564,"byteLength":1536,"target":34962,"byteStride":8},{"buffer":0,"byteOffset":27100,"byteLength":576,"target":34963},{"buffer":0,"byteOffset":27676,"byteLength":2304,"target":34962,"byteStride":12},{"buffer":0,"byteOffset":29980,"byteLength":2304,"target":34962,"byteStride":12},{"buffer":0,"byteOffset":32284,"byteLength":1536,"target":34962,"byteStride":8},{"buffer":0,"byteOffset":33820,"byteLength":576,"target":34963},{"buffer":0,"byteOffset":34396,"byteLength":864,"target":34962,"byteStride":12},{"buffer":0,"byteOffset":35260,"byteLength":864,"target":34962,"byteStride":12},{"buffer":0,"byteOffset":36124,"byteLength":576,"target":34962,"byteStride":8},{"buffer":0,"byteOffset":36700,"byteLength":216,"target":34963},{"buffer":0,"byteOffset":36916,"byteLength":3360,"target":34962,"byteStride":12},{"buffer":0,"byteOffset":40276,"byteLength":3360,"target":34962,"byteStride":12},{"buffer":0,"byteOffset":43636,"byteLength":2240,"target":34962,"byteStride":8},{"buffer":0,"byteOffset":45876,"byteLength":840,"target":34963},{"buffer":0,"byteOffset":46716,"byteLength":40},{"buffer":0,"byteOffset":46756,"byteLength":160},{"buffer":0,"byteOffset":46916,"byteLength":40},{"buffer":0,"byteOffset":46956,"byteLength":120},{"buffer":0,"byteOffset":47076,"byteLength":16},{"buffer":0,"byteOffset":47092,"byteLength":48},{"buffer":0,"byteOffset":47140,"byteLength":12},{"buffer":0,"byteOffset":47152,"byteLength":48},{"buffer":0,"byteOffset":47200,"byteLength":12},{"buffer":0,"byteOffset":47212,"byteLength":36},{"buffer":0,"byteOffset":47248,"byteLength":40},{"buffer":0,"byteOffset":47288,"byteLength":160},{"buffer":0,"byteOffset":47448,"byteLength":40},{"buffer":0,"byteOffset":47488,"byteLength":120},{"buffer":0,"byteOffset":47608,"byteLength":16},{"buffer":0,"byteOffset":47624,"byteLength":48},{"buffer":0,"byteOffset":47672,"byteLength":12},{"buffer":0,"byteOffset":47684,"byteLength":48},{"buffer":0,"byteOffset":47732,"byteLength":12},{"buffer":0,"byteOffset":47744,"byteLength":36}],"buffers":[{"byteLength":47780,"uri":"data:application/octet-stream;base64,"}],"accessors":[{"bufferView":0,"componentType":5126,"count":24,"max":[0.03125,0.10444211959838867,0.06148059666156769],"min":[-0.03125,-0.14555788040161133,-0.001019404619000852],"type":"VEC3"},{"bufferView":1,"componentType":5126,"count":24,"max":[1,1,1],"min":[-1,-1,-1],"type":"VEC3"},{"bufferView":2,"componentType":5126,"count":24,"max":[0.4375,0.8984375],"min":[0.140625,0.59375],"type":"VEC2"},{"bufferView":3,"componentType":5123,"count":36,"max":[23],"min":[0],"type":"SCALAR"},{"bufferView":4,"componentType":5126,"count":384,"max":[0.171875,0.03235238045454025,0.21875],"min":[-0.421875,-0.03235238045454025,-0.21875],"type":"VEC3"},{"bufferView":5,"componentType":5126,"count":384,"max":[0.8447588682174683,0.9652254581451416,0.9061427712440491],"min":[-0.8447588682174683,-0.9652254581451416,-0.9061427712440491],"type":"VEC3"},{"bufferView":6,"componentType":5126,"count":384,"max":[0.5390625,1],"min":[0,0.46875],"type":"VEC2"},{"bufferView":7,"componentType":5123,"count":576,"max":[383],"min":[0],"type":"SCALAR"},{"bufferView":8,"componentType":5126,"count":74,"max":[0.125,1.03125,0.1875],"min":[-0.125,0.28125,0.03125],"type":"VEC3"},{"bufferView":9,"componentType":5126,"count":74,"max":[1,1,1],"min":[-1,-1,-1],"type":"VEC3"},{"bufferView":10,"componentType":5126,"count":74,"max":[0.5234375,1],"min":[0,0.4869539141654968],"type":"VEC2"},{"bufferView":11,"componentType":5123,"count":90,"max":[73],"min":[0],"type":"SCALAR"},{"bufferView":12,"componentType":5126,"count":120,"max":[0.09375,1.1875,0.15625],"min":[-0.09375,-0.375,-0.03125],"type":"VEC3"},{"bufferView":13,"componentType":5126,"count":120,"max":[1,1,1],"min":[-1,-1,-1],"type":"VEC3"},{"bufferView":14,"componentType":5126,"count":120,"max":[0.5277571082115173,1],"min":[0.078125,0.4765625],"type":"VEC2"},{"bufferView":15,"componentType":5123,"count":144,"max":[119],"min":[0],"type":"SCALAR"},{"bufferView":16,"componentType":5126,"count":192,"max":[0.125,1.75,-0.28125],"min":[-0.125,0.125,-0.53125],"type":"VEC3"},{"bufferView":17,"componentType":5126,"count":192,"max":[1,1,1],"min":[-1,-1,-1],"type":"VEC3"},{"bufferView":18,"componentType":5126,"count":192,"max":[0.5318108797073364,1],"min":[0,0.4681890606880188],"type":"VEC2"},{"bufferView":19,"componentType":5123,"count":288,"max":[191],"min":[0],"type":"SCALAR"},{"bufferView":20,"componentType":5126,"count":192,"max":[0.078125,1.703125,-0.109375],"min":[-0.078125,1.421875,-0.265625],"type":"VEC3"},{"bufferView":21,"componentType":5126,"count":192,"max":[1,1,1],"min":[-1,-1,-1],"type":"VEC3"},{"bufferView":22,"componentType":5126,"count":192,"max":[0.5364828109741211,1],"min":[0,0.4609375],"type":"VEC2"},{"bufferView":23,"componentType":5123,"count":288,"max":[191],"min":[0],"type":"SCALAR"},{"bufferView":24,"componentType":5126,"count":72,"max":[0.09375,0.25,0.25],"min":[-0.28125,-0.625,-0.25],"type":"VEC3"},{"bufferView":25,"componentType":5126,"count":72,"max":[1,1,1],"min":[-1,-1,-0.9899494647979736],"type":"VEC3"},{"bufferView":26,"componentType":5126,"count":72,"max":[0.421875,0.8465351462364197],"min":[0.078125,0.546875],"type":"VEC2"},{"bufferView":27,"componentType":5123,"count":108,"max":[71],"min":[0],"type":"SCALAR"},{"bufferView":28,"componentType":5126,"count":280,"max":[0.1875,0.625,0.5],"min":[-0.1875,-0.125,-1.0625],"type":"VEC3"},{"bufferView":29,"componentType":5126,"count":280,"max":[1,1,1],"min":[-1,-1,-1],"type":"VEC3"},{"bufferView":30,"componentType":5126,"count":280,"max":[0.5245312452316284,1],"min":[0,0.5069406032562256],"type":"VEC2"},{"bufferView":31,"componentType":5123,"count":420,"max":[279],"min":[0],"type":"SCALAR"},{"bufferView":32,"componentType":5126,"count":10,"max":[0.5],"min":[0],"type":"SCALAR"},{"bufferView":33,"componentType":5126,"count":10,"max":[0,0,0,1],"min":[-0.3826834261417389,0,0,0.9238795042037964],"type":"VEC4"},{"bufferView":34,"componentType":5126,"count":10,"max":[0.5],"min":[0],"type":"SCALAR"},{"bufferView":35,"componentType":5126,"count":10,"max":[0,0,0],"min":[0,0,-0.8125],"type":"VEC3"},{"bufferView":36,"componentType":5126,"count":4,"max":[0.5],"min":[0],"type":"SCALAR"},{"bufferView":37,"componentType":5126,"count":4,"max":[0,0,0],"min":[0,0,-0.5],"type":"VEC3"},{"bufferView":38,"componentType":5126,"count":3,"max":[0.5],"min":[0],"type":"SCALAR"},{"bufferView":39,"componentType":5126,"count":3,"max":[0.3826834261417389,0,0,1],"min":[0,0,0,0.9238795042037964],"type":"VEC4"},{"bufferView":40,"componentType":5126,"count":3,"max":[0.5],"min":[0],"type":"SCALAR"},{"bufferView":41,"componentType":5126,"count":3,"max":[0,0,0],"min":[0,-0.140625,-0.046875],"type":"VEC3"},{"bufferView":42,"componentType":5126,"count":10,"max":[0.5],"min":[0],"type":"SCALAR"},{"bufferView":43,"componentType":5126,"count":10,"max":[0,0,0,1],"min":[-0.9757021069526672,0,0,-1],"type":"VEC4"},{"bufferView":44,"componentType":5126,"count":10,"max":[0.5],"min":[0],"type":"SCALAR"},{"bufferView":45,"componentType":5126,"count":10,"max":[0,0,0],"min":[0,-0.0625,-1.125],"type":"VEC3"},{"bufferView":46,"componentType":5126,"count":4,"max":[0.5],"min":[0],"type":"SCALAR"},{"bufferView":47,"componentType":5126,"count":4,"max":[0,0,0],"min":[0,0,-0.5],"type":"VEC3"},{"bufferView":48,"componentType":5126,"count":3,"max":[0.5],"min":[0],"type":"SCALAR"},{"bufferView":49,"componentType":5126,"count":3,"max":[0.3826834261417389,0,0,1],"min":[0,0,0,0.9238795042037964],"type":"VEC4"},{"bufferView":50,"componentType":5126,"count":3,"max":[0.5],"min":[0],"type":"SCALAR"},{"bufferView":51,"componentType":5126,"count":3,"max":[0,0,0],"min":[0,-0.140625,-0.046875],"type":"VEC3"}],"materials":[{"pbrMetallicRoughness":{"metallicFactor":0,"roughnessFactor":1,"baseColorTexture":{"index":0}},"alphaMode":"MASK","alphaCutoff":0.05,"doubleSided":true}],"textures":[{"sampler":0,"source":0,"name":"gun.png"}],"samplers":[{"magFilter":9728,"minFilter":9728,"wrapS":33071,"wrapT":33071}],"images":[{"mimeType":"image/png","uri":"data:image/png;base64,"}],"meshes":[{"primitives":[{"mode":4,"attributes":{"POSITION":0,"NORMAL":1,"TEXCOORD_0":2},"indices":3,"material":0}]},{"primitives":[{"mode":4,"attributes":{"POSITION":4,"NORMAL":5,"TEXCOORD_0":6},"indices":7,"material":0}]},{"primitives":[{"mode":4,"attributes":{"POSITION":8,"NORMAL":9,"TEXCOORD_0":10},"indices":11,"material":0}]},{"primitives":[{"mode":4,"attributes":{"POSITION":12,"NORMAL":13,"TEXCOORD_0":14},"indices":15,"material":0}]},{"primitives":[{"mode":4,"attributes":{"POSITION":16,"NORMAL":17,"TEXCOORD_0":18},"indices":19,"material":0}]},{"primitives":[{"mode":4,"attributes":{"POSITION":20,"NORMAL":21,"TEXCOORD_0":22},"indices":23,"material":0}]},{"primitives":[{"mode":4,"attributes":{"POSITION":24,"NORMAL":25,"TEXCOORD_0":26},"indices":27,"material":0}]},{"primitives":[{"mode":4,"attributes":{"POSITION":28,"NORMAL":29,"TEXCOORD_0":30},"indices":31,"material":0}]}],"animations":[{"name":"shoot_normal","samplers":[{"input":32,"output":33,"interpolation":"LINEAR"},{"input":34,"output":35,"interpolation":"LINEAR"},{"input":36,"output":37,"interpolation":"LINEAR"},{"input":38,"output":39,"interpolation":"LINEAR"},{"input":40,"output":41,"interpolation":"LINEAR"}],"channels":[{"sampler":0,"target":{"node":13,"path":"rotation"}},{"sampler":1,"target":{"node":13,"path":"translation"}},{"sampler":2,"target":{"node":5,"path":"translation"}},{"sampler":3,"target":{"node":1,"path":"rotation"}},{"sampler":4,"target":{"node":1,"path":"translation"}}]},{"name":"shoot_shells","samplers":[{"input":42,"output":43,"interpolation":"LINEAR"},{"input":44,"output":45,"interpolation":"LINEAR"},{"input":46,"output":47,"interpolation":"LINEAR"},{"input":48,"output":49,"interpolation":"LINEAR"},{"input":50,"output":51,"interpolation":"LINEAR"}],"channels":[{"sampler":0,"target":{"node":13,"path":"rotation"}},{"sampler":1,"target":{"node":13,"path":"translation"}},{"sampler":2,"target":{"node":5,"path":"translation"}},{"sampler":3,"target":{"node":1,"path":"rotation"}},{"sampler":4,"target":{"node":1,"path":"translation"}}]}]}