{"asset":{"version":"2.0","generator":"Blockbench 4.6.1 glTF exporter"},"scenes":[{"nodes":[26],"name":"blockbench_export"}],"scene":0,"nodes":[{"translation":[0,0.5,-0.03125],"name":"body","mesh":0},{"translation":[0,0.40625,-1.1875],"name":"head","mesh":1},{"rotation":[-0.7071067811865475,0,0,0.7071067811865476],"translation":[-4.625929269271485e-18,0.2708333333333336,-1.75],"name":"beak","mesh":2},{"name":"head","children":[1,2]},{"translation":[-0.90625,0.5,0],"name":"left_wing_root","mesh":3},{"translation":[-1.6875,0.5,-0.0625],"name":"left_wing_middle","mesh":4},{"translation":[-2.375,0.5,-0.125],"name":"cube","mesh":5},{"name":"left_wing_outer","children":[6]},{"name":"left_wing_middle","children":[5,7]},{"name":"left_wing_root","children":[4,8]},{"name":"left_wing","children":[9]},{"translation":[0.90625,0.5,0],"name":"left_wing_root","mesh":6},{"translation":[1.6875,0.5,-0.0625],"name":"left_wing_middle","mesh":7},{"translation":[2.375,0.5,-0.125],"name":"cube","mesh":8},{"name":"right_wing_outer","children":[13]},{"name":"right_wing_middle","children":[12,14]},{"name":"right_wing_root","children":[11,15]},{"name":"right_wing","children":[16]},{"translation":[0,0.4375,1.125],"name":"cube","mesh":9},{"rotation":[0,-0.02181488503456112,0,0.9997620270799091],"translation":[0.3125,0.25,2.0625],"name":"right_feather","mesh":10},{"translation":[-0.3125,0.25,2.0625],"name":"left_feather","mesh":11},{"translation":[0,0.25,2.0625],"name":"middle_feather","mesh":12},{"name":"tail_feathers","children":[19,20,21]},{"name":"tail_root","children":[18,22]},{"name":"tail","children":[23]},{"name":"root","children":[0,3,10,17,24]},{"children":[25]}],"bufferViews":[{"buffer":0,"byteOffset":0,"byteLength":1440,"target":34962,"byteStride":12},{"buffer":0,"byteOffset":1440,"byteLength":1440,"target":34962,"byteStride":12},{"buffer":0,"byteOffset":2880,"byteLength":960,"target":34962,"byteStride":8},{"buffer":0,"byteOffset":3840,"byteLength":360,"target":34963},{"buffer":0,"byteOffset":4200,"byteLength":288,"target":34962,"byteStride":12},{"buffer":0,"byteOffset":4488,"byteLength":288,"target":34962,"byteStride":12},{"buffer":0,"byteOffset":4776,"byteLength":192,"target":34962,"byteStride":8},{"buffer":0,"byteOffset":4968,"byteLength":72,"target":34963},{"buffer":0,"byteOffset":5040,"byteLength":864,"target":34962,"byteStride":12},{"buffer":0,"byteOffset":5904,"byteLength":864,"target":34962,"byteStride":12},{"buffer":0,"byteOffset":6768,"byteLength":576,"target":34962,"byteStride":8},{"buffer":0,"byteOffset":7344,"byteLength":144,"target":34963},{"buffer":0,"byteOffset":7488,"byteLength":288,"target":34962,"byteStride":12},{"buffer":0,"byteOffset":7776,"byteLength":288,"target":34962,"byteStride":12},{"buffer":0,"byteOffset":8064,"byteLength":192,"target":34962,"byteStride":8},{"buffer":0,"byteOffset":8256,"byteLength":72,"target":34963},{"buffer":0,"byteOffset":8328,"byteLength":288,"target":34962,"byteStride":12},{"buffer":0,"byteOffset":8616,"byteLength":288,"target":34962,"byteStride":12},{"buffer":0,"byteOffset":8904,"byteLength":192,"target":34962,"byteStride":8},{"buffer":0,"byteOffset":9096,"byteLength":72,"target":34963},{"buffer":0,"byteOffset":9168,"byteLength":288,"target":34962,"byteStride":12},{"buffer":0,"byteOffset":9456,"byteLength":288,"target":34962,"byteStride":12},{"buffer":0,"byteOffset":9744,"byteLength":192,"target":34962,"byteStride":8},{"buffer":0,"byteOffset":9936,"byteLength":72,"target":34963},{"buffer":0,"byteOffset":10008,"byteLength":288,"target":34962,"byteStride":12},{"buffer":0,"byteOffset":10296,"byteLength":288,"target":34962,"byteStride":12},{"buffer":0,"byteOffset":10584,"byteLength":192,"target":34962,"byteStride":8},{"buffer":0,"byteOffset":10776,"byteLength":72,"target":34963},{"buffer":0,"byteOffset":10848,"byteLength":288,"target":34962,"byteStride":12},{"buffer":0,"byteOffset":11136,"byteLength":288,"target":34962,"byteStride":12},{"buffer":0,"byteOffset":11424,"byteLength":192,"target":34962,"byteStride":8},{"buffer":0,"byteOffset":11616,"byteLength":72,"target":34963},{"buffer":0,"byteOffset":11688,"byteLength":288,"target":34962,"byteStride":12},{"buffer":0,"byteOffset":11976,"byteLength":288,"target":34962,"byteStride":12},{"buffer":0,"byteOffset":12264,"byteLength":192,"target":34962,"byteStride":8},{"buffer":0,"byteOffset":12456,"byteLength":72,"target":34963},{"buffer":0,"byteOffset":12528,"byteLength":288,"target":34962,"byteStride":12},{"buffer":0,"byteOffset":12816,"byteLength":288,"target":34962,"byteStride":12},{"buffer":0,"byteOffset":13104,"byteLength":192,"target":34962,"byteStride":8},{"buffer":0,"byteOffset":13296,"byteLength":72,"target":34963},{"buffer":0,"byteOffset":13368,"byteLength":48,"target":34962,"byteStride":12},{"buffer":0,"byteOffset":13416,"byteLength":48,"target":34962,"byteStride":12},{"buffer":0,"byteOffset":13464,"byteLength":32,"target":34962,"byteStride":8},{"buffer":0,"byteOffset":13496,"byteLength":12,"target":34963},{"buffer":0,"byteOffset":13508,"byteLength":48,"target":34962,"byteStride":12},{"buffer":0,"byteOffset":13556,"byteLength":48,"target":34962,"byteStride":12},{"buffer":0,"byteOffset":13604,"byteLength":32,"target":34962,"byteStride":8},{"buffer":0,"byteOffset":13636,"byteLength":12,"target":34963},{"buffer":0,"byteOffset":13648,"byteLength":48,"target":34962,"byteStride":12},{"buffer":0,"byteOffset":13696,"byteLength":48,"target":34962,"byteStride":12},{"buffer":0,"byteOffset":13744,"byteLength":32,"target":34962,"byteStride":8},{"buffer":0,"byteOffset":13776,"byteLength":12,"target":34963},{"buffer":0,"byteOffset":13788,"byteLength":12},{"buffer":0,"byteOffset":13800,"byteLength":36},{"buffer":0,"byteOffset":13836,"byteLength":12},{"buffer":0,"byteOffset":13848,"byteLength":48},{"buffer":0,"byteOffset":13896,"byteLength":12},{"buffer":0,"byteOffset":13908,"byteLength":36},{"buffer":0,"byteOffset":13944,"byteLength":4},{"buffer":0,"byteOffset":13948,"byteLength":12},{"buffer":0,"byteOffset":13960,"byteLength":4},{"buffer":0,"byteOffset":13964,"byteLength":16},{"buffer":0,"byteOffset":13980,"byteLength":8},{"buffer":0,"byteOffset":13988,"byteLength":24},{"buffer":0,"byteOffset":14012,"byteLength":12},{"buffer":0,"byteOffset":14024,"byteLength":48},{"buffer":0,"byteOffset":14072,"byteLength":12},{"buffer":0,"byteOffset":14084,"byteLength":36},{"buffer":0,"byteOffset":14120,"byteLength":12},{"buffer":0,"byteOffset":14132,"byteLength":36},{"buffer":0,"byteOffset":14168,"byteLength":4},{"buffer":0,"byteOffset":14172,"byteLength":12},{"buffer":0,"byteOffset":14184,"byteLength":12},{"buffer":0,"byteOffset":14196,"byteLength":48},{"buffer":0,"byteOffset":14244,"byteLength":12},{"buffer":0,"byteOffset":14256,"byteLength":48}],"buffers":[{"byteLength":14304,"uri":"data:application/octet-stream;base64,"}],"accessors":[{"bufferView":0,"componentType":5126,"count":120,"max":[0.5,0.125,0.71875],"min":[-0.5,-0.5625,-0.71875],"type":"VEC3"},{"bufferView":1,"componentType":5126,"count":120,"max":[1,1,1],"min":[-1,-1,-1],"type":"VEC3"},{"bufferView":2,"componentType":5126,"count":120,"max":[0.5625,1],"min":[0,0.4921875],"type":"VEC2"},{"bufferView":3,"componentType":5123,"count":180,"max":[119],"min":[0],"type":"SCALAR"},{"bufferView":4,"componentType":5126,"count":24,"max":[0.4375,0.09375,0.4375],"min":[-0.4375,-0.34375,-0.4375],"type":"VEC3"},{"bufferView":5,"componentType":5126,"count":24,"max":[0.9974586963653564,0.9899494647979736,1],"min":[-0.9974586963653564,-1,-1],"type":"VEC3"},{"bufferView":6,"componentType":5126,"count":24,"max":[0.78125,0.9296875],"min":[0,0.3203125],"type":"VEC2"},{"bufferView":7,"componentType":5123,"count":36,"max":[23],"min":[0],"type":"SCALAR"},{"bufferView":8,"componentType":5126,"count":72,"max":[0.125,0.25,0.0416666679084301],"min":[-0.125,-0.125,-0.2083333283662796],"type":"VEC3"},{"bufferView":9,"componentType":5126,"count":72,"max":[0.9486833214759827,0.3162277638912201,0.9486833214759827],"min":[-0.9486833214759827,-1,-0.9486833214759827],"type":"VEC3"},{"bufferView":10,"componentType":5126,"count":72,"max":[0.75,0.992738664150238],"min":[0,0.38027656078338623],"type":"VEC2"},{"bufferView":11,"componentType":5123,"count":72,"max":[71],"min":[0],"type":"SCALAR"},{"bufferView":12,"componentType":5126,"count":24,"max":[0.40625,0,0.5],"min":[-0.40625,-0.5,-0.5],"type":"VEC3"},{"bufferView":13,"componentType":5126,"count":24,"max":[1,1,1],"min":[-1,-0.9970544576644897,-1],"type":"VEC3"},{"bufferView":14,"componentType":5126,"count":24,"max":[0.7109375,1],"min":[0,0.3828125],"type":"VEC2"},{"bufferView":15,"componentType":5123,"count":36,"max":[23],"min":[0],"type":"SCALAR"},{"bufferView":16,"componentType":5126,"count":24,"max":[0.375,0,0.4375],"min":[-0.375,-0.4375,-0.4375],"type":"VEC3"},{"bufferView":17,"componentType":5126,"count":24,"max":[1,1,1],"min":[-1,-0.9965457320213318,-1],"type":"VEC3"},{"bufferView":18,"componentType":5126,"count":24,"max":[0.765625,0.7734375],"min":[0,0.3203125],"type":"VEC2"},{"bufferView":19,"componentType":5123,"count":36,"max":[23],"min":[0],"type":"SCALAR"},{"bufferView":20,"componentType":5126,"count":24,"max":[0.3125,0,0.375],"min":[-0.3125,-0.3125,-0.375],"type":"VEC3"},{"bufferView":21,"componentType":5126,"count":24,"max":[1,1,1],"min":[-1,-0.9950371980667114,-1],"type":"VEC3"},{"bufferView":22,"componentType":5126,"count":24,"max":[0.8125,0.9296875],"min":[0.171875,0.2734375],"type":"VEC2"},{"bufferView":23,"componentType":5123,"count":36,"max":[23],"min":[0],"type":"SCALAR"},{"bufferView":24,"componentType":5126,"count":24,"max":[0.40625,0,0.5],"min":[-0.40625,-0.5,-0.5],"type":"VEC3"},{"bufferView":25,"componentType":5126,"count":24,"max":[1,1,1],"min":[-1,-0.9970544576644897,-1],"type":"VEC3"},{"bufferView":26,"componentType":5126,"count":24,"max":[0.7109375,0.8046875],"min":[0,0.328125],"type":"VEC2"},{"bufferView":27,"componentType":5123,"count":36,"max":[23],"min":[0],"type":"SCALAR"},{"bufferView":28,"componentType":5126,"count":24,"max":[0.375,0,0.4375],"min":[-0.375,-0.4375,-0.4375],"type":"VEC3"},{"bufferView":29,"componentType":5126,"count":24,"max":[1,1,1],"min":[-1,-0.9965457320213318,-1],"type":"VEC3"},{"bufferView":30,"componentType":5126,"count":24,"max":[0.5859375,0.5546875],"min":[0.21875,0.265625],"type":"VEC2"},{"bufferView":31,"componentType":5123,"count":36,"max":[23],"min":[0],"type":"SCALAR"},{"bufferView":32,"componentType":5126,"count":24,"max":[0.3125,0,0.375],"min":[-0.3125,-0.3125,-0.375],"type":"VEC3"},{"bufferView":33,"componentType":5126,"count":24,"max":[1,1,1],"min":[-1,-0.9950371980667114,-1],"type":"VEC3"},{"bufferView":34,"componentType":5126,"count":24,"max":[0.8125,1],"min":[0,0.2734375],"type":"VEC2"},{"bufferView":35,"componentType":5123,"count":36,"max":[23],"min":[0],"type":"SCALAR"},{"bufferView":36,"componentType":5126,"count":24,"max":[0.4375,0.0625,0.4375],"min":[-0.4375,-0.4375,-0.4375],"type":"VEC3"},{"bufferView":37,"componentType":5126,"count":24,"max":[0.9974586963653564,0.9899494647979736,1],"min":[-0.9974586963653564,-0.9899494647979736,-1],"type":"VEC3"},{"bufferView":38,"componentType":5126,"count":24,"max":[0.8125,1],"min":[0.3359375,0.4375],"type":"VEC2"},{"bufferView":39,"componentType":5123,"count":36,"max":[23],"min":[0],"type":"SCALAR"},{"bufferView":40,"componentType":5126,"count":4,"max":[0.2302568107843399,0,0.5152029395103455],"min":[-0.2302568107843399,0,-0.5152029395103455],"type":"VEC3"},{"bufferView":41,"componentType":5126,"count":4,"max":[0,1,0],"min":[0,1,0],"type":"VEC3"},{"bufferView":42,"componentType":5126,"count":4,"max":[0.625,0.3203125],"min":[0.59375,0.1953125],"type":"VEC2"},{"bufferView":43,"componentType":5123,"count":6,"max":[3],"min":[0],"type":"SCALAR"},{"bufferView":44,"componentType":5126,"count":4,"max":[0.20992505550384521,0,0.5141099095344543],"min":[-0.20992505550384521,0,-0.5141099095344543],"type":"VEC3"},{"bufferView":45,"componentType":5126,"count":4,"max":[0,1,0],"min":[0,1,0],"type":"VEC3"},{"bufferView":46,"componentType":5126,"count":4,"max":[0.765625,0.71875],"min":[0.640625,0.6875],"type":"VEC2"},{"bufferView":47,"componentType":5123,"count":6,"max":[3],"min":[0],"type":"SCALAR"},{"bufferView":48,"componentType":5126,"count":4,"max":[0.1875,0,0.5],"min":[-0.1875,0,-0.5],"type":"VEC3"},{"bufferView":49,"componentType":5126,"count":4,"max":[0,1,0],"min":[0,1,0],"type":"VEC3"},{"bufferView":50,"componentType":5126,"count":4,"max":[0.1640625,0.375],"min":[0.1171875,0.25],"type":"VEC2"},{"bufferView":51,"componentType":5123,"count":6,"max":[3],"min":[0],"type":"SCALAR"},{"bufferView":52,"componentType":5126,"count":3,"max":[1],"min":[0],"type":"SCALAR"},{"bufferView":53,"componentType":5126,"count":3,"max":[0,0.0625,0],"min":[0,-0.0625,0],"type":"VEC3"},{"bufferView":54,"componentType":5126,"count":3,"max":[1],"min":[0],"type":"SCALAR"},{"bufferView":55,"componentType":5126,"count":3,"max":[0,0,0.258819043636322,0.9659258127212524],"min":[0,0,-0.258819043636322,0.9659258127212524],"type":"VEC4"},{"bufferView":56,"componentType":5126,"count":3,"max":[1],"min":[0],"type":"SCALAR"},{"bufferView":57,"componentType":5126,"count":3,"max":[0.1875,0.3125,0],"min":[0.0625,-0.1875,0],"type":"VEC3"},{"bufferView":58,"componentType":5126,"count":1,"max":[0.5],"min":[0.5],"type":"SCALAR"},{"bufferView":59,"componentType":5126,"count":1,"max":[0,0,0],"min":[0,0,0],"type":"VEC3"},{"bufferView":60,"componentType":5126,"count":1,"max":[0.5],"min":[0.5],"type":"SCALAR"},{"bufferView":61,"componentType":5126,"count":1,"max":[0,0,0,1],"min":[0,0,0,1],"type":"VEC4"},{"bufferView":62,"componentType":5126,"count":2,"max":[0.5],"min":[0],"type":"SCALAR"},{"bufferView":63,"componentType":5126,"count":2,"max":[0,0,0],"min":[0,0,0],"type":"VEC3"},{"bufferView":64,"componentType":5126,"count":3,"max":[1],"min":[0],"type":"SCALAR"},{"bufferView":65,"componentType":5126,"count":3,"max":[0,0,0.258819043636322,0.9659258127212524],"min":[0,0,-0.258819043636322,0.9659258127212524],"type":"VEC4"},{"bufferView":66,"componentType":5126,"count":3,"max":[1],"min":[0],"type":"SCALAR"},{"bufferView":67,"componentType":5126,"count":3,"max":[-0.0625,0.3125,0],"min":[-0.1875,-0.1875,0],"type":"VEC3"},{"bufferView":68,"componentType":5126,"count":3,"max":[1],"min":[0],"type":"SCALAR"},{"bufferView":69,"componentType":5126,"count":3,"max":[0,0,0],"min":[-0.0625,-0.03125,0],"type":"VEC3"},{"bufferView":70,"componentType":5126,"count":1,"max":[0],"min":[0],"type":"SCALAR"},{"bufferView":71,"componentType":5126,"count":1,"max":[0,0,0],"min":[0,0,0],"type":"VEC3"},{"bufferView":72,"componentType":5126,"count":3,"max":[1],"min":[0],"type":"SCALAR"},{"bufferView":73,"componentType":5126,"count":3,"max":[0.04361938685178757,0,0,0.9997619986534119],"min":[-0.02181488461792469,0,0,0.9990482330322266],"type":"VEC4"},{"bufferView":74,"componentType":5126,"count":3,"max":[1],"min":[0],"type":"SCALAR"},{"bufferView":75,"componentType":5126,"count":3,"max":[0.04361938685178757,0,0,0.9997619986534119],"min":[-0.02181488461792469,0,0,0.9990482330322266],"type":"VEC4"}],"materials":[{"pbrMetallicRoughness":{"metallicFactor":0,"roughnessFactor":1,"baseColorTexture":{"index":0}},"alphaMode":"MASK","alphaCutoff":0.05,"doubleSided":true}],"textures":[{"sampler":0,"source":0,"name":"crow.png"}],"samplers":[{"magFilter":9728,"minFilter":9728,"wrapS":33071,"wrapT":33071}],"images":[{"mimeType":"image/png","uri":"data:image/png;base64,"}],"meshes":[{"primitives":[{"mode":4,"attributes":{"POSITION":0,"NORMAL":1,"TEXCOORD_0":2},"indices":3,"material":0}]},{"primitives":[{"mode":4,"attributes":{"POSITION":4,"NORMAL":5,"TEXCOORD_0":6},"indices":7,"material":0}]},{"primitives":[{"mode":4,"attributes":{"POSITION":8,"NORMAL":9,"TEXCOORD_0":10},"indices":11,"material":0}]},{"primitives":[{"mode":4,"attributes":{"POSITION":12,"NORMAL":13,"TEXCOORD_0":14},"indices":15,"material":0}]},{"primitives":[{"mode":4,"attributes":{"POSITION":16,"NORMAL":17,"TEXCOORD_0":18},"indices":19,"material":0}]},{"primitives":[{"mode":4,"attributes":{"POSITION":20,"NORMAL":21,"TEXCOORD_0":22},"indices":23,"material":0}]},{"primitives":[{"mode":4,"attributes":{"POSITION":24,"NORMAL":25,"TEXCOORD_0":26},"indices":27,"material":0}]},{"primitives":[{"mode":4,"attributes":{"POSITION":28,"NORMAL":29,"TEXCOORD_0":30},"indices":31,"material":0}]},{"primitives":[{"mode":4,"attributes":{"POSITION":32,"NORMAL":33,"TEXCOORD_0":34},"indices":35,"material":0}]},{"primitives":[{"mode":4,"attributes":{"POSITION":36,"NORMAL":37,"TEXCOORD_0":38},"indices":39,"material":0}]},{"primitives":[{"mode":4,"attributes":{"POSITION":40,"NORMAL":41,"TEXCOORD_0":42},"indices":43,"material":0}]},{"primitives":[{"mode":4,"attributes":{"POSITION":44,"NORMAL":45,"TEXCOORD_0":46},"indices":47,"material":0}]},{"primitives":[{"mode":4,"attributes":{"POSITION":48,"NORMAL":49,"TEXCOORD_0":50},"indices":51,"material":0}]}],"animations":[{"name":"flying","samplers":[{"input":52,"output":53,"interpolation":"LINEAR"},{"input":54,"output":55,"interpolation":"LINEAR"},{"input":56,"output":57,"interpolation":"LINEAR"},{"input":58,"output":59,"interpolation":"LINEAR"},{"input":60,"output":61,"interpolation":"LINEAR"},{"input":62,"output":63,"interpolation":"LINEAR"},{"input":64,"output":65,"interpolation":"LINEAR"},{"input":66,"output":67,"interpolation":"LINEAR"},{"input":68,"output":69,"interpolation":"LINEAR"},{"input":70,"output":71,"interpolation":"LINEAR"},{"input":72,"output":73,"interpolation":"LINEAR"},{"input":74,"output":75,"interpolation":"LINEAR"}],"channels":[{"sampler":0,"target":{"node":3,"path":"translation"}},{"sampler":1,"target":{"node":10,"path":"rotation"}},{"sampler":2,"target":{"node":10,"path":"translation"}},{"sampler":3,"target":{"node":9,"path":"translation"}},{"sampler":4,"target":{"node":8,"path":"rotation"}},{"sampler":5,"target":{"node":8,"path":"translation"}},{"sampler":6,"target":{"node":17,"path":"rotation"}},{"sampler":7,"target":{"node":17,"path":"translation"}},{"sampler":8,"target":{"node":16,"path":"translation"}},{"sampler":9,"target":{"node":15,"path":"translation"}},{"sampler":10,"target":{"node":24,"path":"rotation"}},{"sampler":11,"target":{"node":22,"path":"rotation"}}]}]}